<?xml version="1.0" standalone="no"?>
<!DOCTYPE svg PUBLIC "-//W3C//DTD SVG 20010904//EN"
 "http://www.w3.org/TR/2001/REC-SVG-20010904/DTD/svg10.dtd">
<svg version="1.0" xmlns="http://www.w3.org/2000/svg"
 width="1920.000000pt" height="1060.000000pt" viewBox="0 0 1920.000000 1060.000000"
 preserveAspectRatio="xMidYMid meet">

<g transform="translate(0.000000,1060.000000) scale(0.100000,-0.100000)"
fill="#000000" stroke="none">
<path d="M10725 10345 c-27 -7 -100 -14 -162 -14 -125 -1 -133 -5 -133 -74 0
-43 -26 -67 -73 -67 -45 0 -67 -22 -67 -66 0 -40 -29 -74 -64 -74 -14 0 -36
-4 -50 -10 -22 -8 -26 -16 -26 -49 0 -54 -24 -79 -85 -88 l-50 -8 -3 -82 c-3
-75 -5 -84 -29 -103 -14 -11 -40 -20 -58 -20 -18 0 -37 -6 -42 -12 -5 -8 -9
-246 -8 -573 l0 -560 50 -7 c82 -12 85 -20 85 -229 0 -166 1 -179 19 -189 11
-5 33 -10 50 -10 53 0 71 -29 71 -115 0 -74 1 -76 30 -93 38 -22 53 -66 44
-131 -8 -62 4 -81 55 -81 54 0 81 -23 81 -69 0 -49 16 -67 64 -74 68 -11 79
-30 81 -150 1 -57 5 -109 8 -114 4 -6 26 -13 49 -16 32 -4 50 -14 73 -40 17
-19 38 -37 48 -40 28 -10 38 -53 36 -154 -1 -52 3 -99 8 -104 6 -6 30 -13 54
-15 55 -6 79 -32 79 -85 0 -23 6 -43 16 -51 8 -7 23 -21 32 -32 9 -10 22 -24
29 -31 15 -15 161 -30 194 -20 12 4 37 23 55 41 24 26 40 34 66 34 45 0 58 15
58 67 0 26 6 47 16 55 9 7 40 36 70 64 l54 52 0 73 0 72 70 67 c62 59 70 71
70 104 0 43 15 76 34 76 22 0 38 27 42 72 5 53 32 78 85 78 49 0 57 15 51 100
-4 60 -2 70 17 86 12 11 46 43 76 72 l54 52 -6 69 c-5 64 -4 71 19 94 13 13
31 26 39 29 10 3 14 24 14 83 1 76 2 79 34 106 28 23 35 36 39 79 4 42 10 54
31 68 14 9 29 20 32 25 3 5 4 84 1 176 -5 176 1 247 21 275 7 10 37 23 67 29
l55 12 3 379 c1 271 -1 383 -9 392 -6 8 -25 14 -41 14 -31 0 -68 16 -80 34 -4
6 -8 59 -8 118 l0 107 -45 44 c-35 35 -55 46 -90 51 -57 9 -75 27 -75 76 0 59
-20 73 -94 66 -105 -11 -147 36 -92 101 14 17 23 33 19 37 -3 3 -189 6 -412 6
-326 0 -417 3 -461 15 -65 17 -117 17 -185 0z m399 -67 c33 -46 14 -88 -39
-88 -37 0 -55 16 -55 49 0 55 64 82 94 39z m-135 -62 c21 -26 9 -79 -21 -94
-55 -26 -106 26 -79 84 8 19 18 24 50 24 21 0 44 -6 50 -14z m-147 -146 c37
-46 4 -100 -62 -100 -45 0 -60 -15 -60 -57 0 -26 -9 -43 -40 -73 -33 -32 -40
-46 -40 -77 0 -30 -6 -43 -31 -64 -25 -21 -32 -34 -34 -69 -2 -36 -8 -49 -35
-71 l-32 -27 0 -243 c0 -219 1 -245 17 -254 42 -25 46 -33 50 -79 2 -38 9 -53
33 -74 22 -20 31 -38 35 -72 5 -42 11 -51 53 -76 13 -7 20 -28 24 -65 l5 -54
49 -6 c39 -4 54 -12 75 -37 19 -24 34 -32 58 -32 24 0 46 -12 85 -46 29 -25
62 -57 74 -70 20 -24 22 -25 165 -22 l144 3 10 55 c10 50 14 56 45 67 19 7 44
12 55 12 11 1 32 15 46 33 21 25 36 33 75 37 l49 6 5 118 c5 110 7 120 29 138
13 10 38 19 55 19 52 0 56 11 56 155 0 144 -4 155 -56 155 -17 0 -42 9 -55 19
-21 17 -24 28 -25 93 l-1 74 -81 81 -80 80 -78 5 c-88 6 -114 25 -114 82 0 50
-13 56 -122 56 -83 0 -99 -3 -106 -17 -13 -27 -15 -270 -2 -278 6 -3 60 -9
122 -12 125 -7 148 -18 148 -75 0 -46 9 -54 63 -62 34 -5 52 -14 63 -32 17
-25 17 -26 -30 -89 -6 -7 1 -21 18 -38 31 -31 33 -60 7 -84 -10 -10 -42 -39
-70 -65 l-51 -48 2 -62 c2 -82 -6 -104 -44 -117 -40 -14 -198 -14 -235 0 -35
13 -43 25 -43 69 0 45 -15 60 -60 60 -44 0 -80 24 -80 53 0 12 12 36 26 52 23
27 24 30 7 33 -68 12 -91 24 -102 50 -8 20 -11 105 -9 280 3 286 2 282 85 292
l48 5 6 110 c4 61 10 117 13 126 9 21 49 39 85 39 19 0 37 11 58 35 l31 35
298 0 299 0 35 -37 c19 -21 44 -43 55 -49 14 -8 21 -25 25 -65 l5 -54 47 -7
c26 -3 52 -9 57 -13 25 -15 30 -97 28 -463 l-2 -383 -32 -25 c-27 -21 -33 -32
-33 -65 0 -46 -14 -79 -34 -79 -31 0 -37 -29 -39 -175 -2 -141 -3 -148 -26
-166 -14 -11 -39 -19 -62 -19 -21 0 -41 -5 -45 -12 -4 -7 -8 -63 -8 -126 -1
-129 -8 -142 -77 -142 -58 0 -70 -19 -63 -100 7 -73 6 -75 -60 -127 -11 -10
-15 -31 -14 -84 2 -69 1 -71 -38 -109 -21 -21 -47 -47 -56 -57 -9 -10 -24 -24
-32 -31 -12 -10 -16 -32 -16 -87 0 -90 -17 -115 -78 -115 -54 0 -62 -13 -62
-99 0 -72 -1 -75 -35 -107 -29 -26 -35 -39 -35 -72 0 -46 -20 -72 -54 -72 -40
0 -58 23 -64 79 -4 43 -9 55 -28 63 -33 15 -48 59 -40 118 9 68 -4 90 -52 90
-55 0 -82 23 -82 69 0 49 -16 67 -64 74 -62 10 -80 34 -81 114 0 37 -4 73 -8
80 -4 7 -24 15 -45 19 -20 4 -45 11 -54 15 -24 13 -38 72 -38 165 0 81 0 82
-35 108 -30 23 -35 33 -35 70 0 52 -13 66 -62 66 -25 0 -45 7 -58 20 -18 18
-20 33 -20 164 0 159 0 159 -65 169 -74 12 -75 16 -75 297 l0 248 -35 26 -35
27 0 92 c0 100 2 104 43 130 27 17 27 18 27 126 0 131 10 150 83 158 56 7 55
5 59 152 2 82 6 105 18 109 8 3 34 25 57 49 42 42 43 43 111 43 78 0 92 9 92
60 0 69 41 91 159 86 53 -2 67 -6 83 -26z"/>
<path d="M8954 9676 c-3 -8 -31 -37 -63 -64 l-57 -50 -249 -7 -250 -7 -32 -34
c-31 -33 -35 -34 -104 -34 -68 0 -74 -2 -110 -35 -28 -25 -48 -35 -72 -35 -25
0 -42 -9 -67 -35 l-34 -35 -106 0 c-116 0 -130 -6 -130 -53 0 -30 -16 -67 -34
-79 -6 -4 -43 -8 -81 -8 l-70 0 -75 -70 -75 -70 -67 0 c-65 0 -69 -1 -107 -40
-39 -39 -41 -40 -110 -40 -39 0 -71 -3 -71 -6 0 -3 11 -19 25 -36 53 -63 26
-91 -94 -98 l-86 -5 -3 -46 c-4 -58 -24 -78 -89 -87 l-48 -7 -10 -55 c-9 -46
-15 -56 -40 -66 -17 -7 -41 -13 -55 -13 -16 -1 -35 -13 -52 -33 -25 -31 -31
-33 -110 -38 l-83 -5 -5 -54 c-4 -38 -11 -58 -24 -65 -10 -6 -75 -66 -143
-134 -104 -103 -124 -127 -121 -149 2 -17 14 -32 33 -43 25 -14 31 -24 35 -66
7 -62 15 -74 48 -74 20 0 48 19 102 70 59 55 82 70 106 70 23 0 43 12 82 50
45 44 52 56 52 90 0 46 21 64 85 76 47 8 55 17 55 65 0 54 24 69 117 76 43 3
81 11 85 17 4 6 8 25 8 41 0 48 24 73 77 81 35 5 55 15 79 40 30 32 35 34 103
34 77 0 89 11 51 45 -22 20 -27 64 -8 83 7 7 43 12 91 12 l78 0 70 70 69 70
75 0 c82 0 95 9 95 67 0 59 17 68 142 71 l113 3 31 34 c24 25 43 35 79 40 62
10 137 -1 153 -22 26 -36 16 -63 -42 -111 -9 -7 -16 -28 -16 -50 0 -20 -4 -42
-8 -49 -10 -16 -57 -33 -92 -33 -31 0 -40 -14 -40 -63 0 -18 -4 -37 -8 -43
-13 -19 -50 -34 -85 -34 -38 0 -47 -12 -47 -64 0 -49 -19 -67 -80 -74 l-55 -7
-5 -88 c-6 -99 -17 -117 -76 -117 -68 0 -64 21 -64 -330 0 -348 -3 -330 60
-330 15 0 38 -9 51 -19 23 -19 24 -25 29 -207 l5 -189 50 -8 c80 -12 85 -24
85 -194 l0 -144 30 -17 c17 -9 33 -25 36 -35 3 -9 6 -104 6 -209 0 -190 0
-193 -24 -210 -12 -10 -29 -23 -35 -28 -8 -7 -13 -35 -13 -70 0 -32 -4 -70 -9
-83 -12 -31 -57 -47 -129 -47 -51 0 -58 -3 -88 -35 l-32 -35 -180 0 c-169 0
-182 -1 -192 -19 -5 -11 -10 -33 -10 -50 0 -59 -26 -71 -147 -71 l-108 0 -36
-37 c-95 -97 -103 -103 -141 -103 -30 0 -42 -6 -63 -34 -22 -28 -36 -36 -78
-43 l-52 -8 -5 -46 c-7 -62 -22 -77 -81 -85 -27 -4 -51 -10 -54 -13 -2 -4 -6
-27 -9 -52 -4 -30 -13 -50 -28 -62 -13 -10 -71 -65 -129 -122 -96 -95 -110
-105 -143 -105 -30 0 -38 -5 -46 -26 -6 -14 -10 -38 -10 -54 0 -40 -32 -60
-97 -60 -59 0 -83 17 -83 58 0 32 7 42 43 65 l27 17 0 180 c0 167 1 181 20
200 11 11 24 20 29 20 11 0 31 54 31 83 0 19 22 46 98 121 32 32 32 33 35 139
2 123 14 145 86 154 23 3 44 10 47 14 7 12 6 618 -1 630 -4 5 -17 9 -30 9 -43
0 -71 18 -136 84 l-63 66 -236 0 c-170 0 -239 -3 -248 -12 -7 -7 -12 -26 -12
-44 0 -17 -9 -43 -21 -58 -18 -23 -27 -26 -88 -26 -84 0 -101 -12 -108 -73 -4
-35 -11 -51 -27 -58 -11 -6 -34 -27 -51 -45 -22 -25 -41 -36 -70 -41 -55 -8
-66 -24 -58 -93 9 -89 -3 -145 -38 -178 -20 -19 -31 -40 -33 -63 -4 -42 -15
-79 -25 -79 -4 0 -15 -6 -26 -13 -16 -12 -18 -32 -22 -163 l-3 -149 -33 -30
-33 -31 -3 -209 c-1 -116 -6 -286 -11 -380 -12 -220 -12 -514 0 -685 5 -74 11
-227 12 -340 3 -216 1 -206 51 -246 16 -14 32 -263 21 -331 -6 -39 -4 -41 64
-111 79 -81 90 -112 78 -223 -5 -51 -3 -62 14 -79 11 -11 24 -20 29 -20 18 0
34 -61 28 -115 -7 -66 4 -81 63 -88 70 -9 80 -28 80 -154 l0 -105 70 -69 c63
-61 70 -72 70 -107 0 -46 14 -62 56 -62 17 0 42 -9 55 -19 22 -18 24 -28 27
-127 l4 -109 46 -47 c39 -40 53 -48 85 -48 49 0 77 -28 77 -77 0 -44 5 -52 43
-76 22 -15 27 -24 27 -60 0 -51 13 -67 55 -67 58 0 79 -20 87 -79 4 -35 12
-58 23 -64 9 -5 24 -18 34 -29 9 -11 22 -26 29 -32 23 -19 46 -42 63 -62 9
-10 25 -26 37 -35 11 -10 24 -24 29 -33 8 -15 36 -24 80 -25 31 -1 53 -28 53
-64 0 -51 24 -77 71 -77 51 0 79 -27 79 -78 0 -48 14 -62 62 -62 31 0 42 -6
65 -35 22 -27 35 -35 60 -35 66 0 93 -26 93 -91 0 -35 18 -49 62 -49 50 0 78
-28 78 -78 0 -54 13 -62 98 -62 72 0 75 -1 105 -35 24 -27 38 -35 64 -35 34 0
64 -22 147 -108 31 -32 33 -32 145 -39 120 -7 141 -15 141 -58 0 -13 4 -35 9
-48 9 -22 16 -25 91 -30 100 -6 120 -21 120 -83 0 -24 5 -46 10 -49 6 -3 92
-8 192 -10 l183 -5 32 -35 32 -35 135 0 134 0 40 -33 40 -34 333 -6 c419 -9
726 -9 1193 0 l368 6 40 34 c39 33 41 33 139 33 l100 0 32 35 32 35 180 3 c99
1 186 6 193 10 6 5 12 27 12 51 0 63 21 78 115 81 72 2 78 4 109 36 100 101
96 98 176 105 64 5 79 10 105 35 88 84 107 98 142 105 25 4 49 18 70 40 31 33
35 34 105 34 84 0 98 8 98 60 0 51 18 70 70 77 58 7 66 15 73 65 7 52 24 68
78 75 34 4 51 14 72 39 27 33 31 34 101 34 82 0 96 9 96 60 0 55 23 80 74 80
52 0 70 17 68 65 -2 50 23 74 85 82 l52 6 6 46 c9 63 12 70 32 78 10 4 34 24
54 45 30 32 43 38 76 38 44 0 53 12 53 76 0 24 8 38 35 58 31 24 35 32 35 71
0 38 4 47 28 62 36 23 42 32 42 69 0 46 27 73 84 83 27 5 53 16 58 25 5 9 16
22 24 29 9 6 23 21 32 31 20 22 44 46 66 64 12 10 16 32 16 87 l0 75 70 67
c65 62 70 71 70 109 0 36 5 46 36 71 30 24 37 37 41 76 4 37 12 52 33 67 22
16 28 29 32 72 3 29 10 54 17 56 6 2 21 12 33 22 20 16 23 27 23 95 0 69 3 79
24 96 14 11 39 19 62 19 21 0 41 6 46 13 4 6 6 70 4 140 -3 124 7 187 30 187
5 0 33 24 62 53 l52 53 -1 133 c-1 128 -2 133 -28 160 -34 36 -34 74 2 99 l27
20 0 847 0 847 -27 20 c-38 27 -39 78 -2 105 26 19 27 22 28 149 1 71 -2 137
-6 147 -6 12 -20 17 -47 17 -23 0 -48 8 -62 19 -23 19 -24 24 -25 165 l-1 146
-34 35 c-19 19 -38 39 -44 45 -5 5 -21 19 -35 29 -23 18 -25 26 -25 95 -1 74
-1 76 -38 110 -31 28 -37 40 -37 74 0 40 -5 49 -43 75 -11 7 -21 33 -26 67 -5
30 -14 56 -21 58 -30 10 -50 43 -50 82 0 40 -15 59 -122 154 -14 12 -18 32
-18 85 0 91 -5 101 -46 101 -70 0 -90 21 -96 99 -3 33 -5 35 -56 47 -66 14
-73 21 -80 79 -4 36 -11 50 -31 63 -36 23 -41 32 -41 74 0 47 -22 68 -69 68
-47 0 -71 24 -71 73 0 30 -9 44 -53 89 -30 29 -61 58 -71 63 -12 7 -19 25 -21
57 -4 63 -9 68 -59 68 -61 0 -79 18 -86 81 l-5 54 -80 5 -80 6 -103 103 -103
104 -69 1 c-62 2 -73 5 -99 30 -16 16 -34 26 -39 22 -10 -6 -13 -189 -3 -203
3 -5 18 -16 34 -26 22 -14 27 -25 27 -60 0 -23 4 -47 8 -53 4 -6 42 -13 85
-16 90 -6 117 -23 117 -74 0 -47 9 -64 34 -64 11 0 38 -5 58 -11 39 -10 40
-12 53 -91 5 -35 8 -37 50 -44 35 -5 56 -17 98 -58 45 -43 55 -58 60 -95 6
-50 18 -61 68 -61 45 0 65 -22 72 -76 5 -41 26 -67 130 -158 10 -10 17 -31 17
-53 0 -51 7 -58 65 -69 65 -12 75 -32 75 -151 0 -119 2 -123 55 -123 44 0 65
-13 86 -51 5 -11 21 -24 35 -29 36 -14 44 -48 37 -153 -7 -107 3 -127 63 -127
67 0 84 -45 75 -201 -2 -45 0 -48 68 -118 64 -66 70 -75 76 -125 4 -30 4 -77
0 -105 -7 -49 -6 -51 35 -91 l41 -40 -2 -210 c-1 -116 1 -213 4 -216 3 -4 20
5 37 20 37 31 61 33 83 8 16 -17 17 -90 17 -846 l0 -827 -25 -24 c-17 -18 -35
-25 -64 -25 -22 0 -43 -5 -47 -11 -3 -6 -6 -118 -5 -248 2 -247 -3 -285 -40
-296 -9 -3 -29 -21 -43 -40 -22 -28 -35 -36 -75 -41 -53 -7 -61 -17 -61 -81 0
-23 -7 -37 -24 -48 -21 -14 -158 -146 -208 -201 -9 -11 -22 -23 -28 -29 -6 -5
-21 -21 -34 -35 -13 -14 -30 -30 -38 -36 -7 -6 -23 -23 -35 -38 -18 -20 -32
-26 -63 -26 -41 0 -55 -20 -26 -37 7 -4 19 -18 25 -31 10 -19 10 -28 -4 -48
-12 -19 -24 -24 -59 -24 -43 0 -48 -4 -150 -105 -93 -93 -109 -105 -140 -105
-41 0 -66 -28 -66 -76 0 -40 -24 -60 -82 -68 -51 -8 -58 -17 -58 -77 0 -36 -3
-41 -35 -55 -19 -7 -48 -14 -65 -14 -17 0 -30 -5 -31 -12 0 -7 -1 -121 -1
-253 0 -159 3 -240 10 -243 6 -2 36 -27 66 -57 43 -41 56 -60 56 -83 0 -45
-21 -56 -105 -54 -75 1 -102 -10 -73 -32 24 -18 40 -55 33 -77 -9 -29 -52 -42
-112 -34 -73 9 -93 -4 -93 -59 0 -53 -15 -67 -84 -81 l-51 -10 -10 -54 c-9
-47 -15 -56 -40 -67 -17 -7 -42 -13 -57 -14 -20 0 -32 -8 -43 -30 -17 -34 -53
-47 -84 -31 -43 24 -36 106 10 113 49 7 51 77 1 100 -23 11 -28 21 -34 67 -3
30 -12 58 -20 63 -7 4 -61 7 -119 6 -115 -3 -139 5 -139 47 0 13 11 37 25 53
13 16 22 32 18 36 -3 3 -35 6 -69 6 -71 0 -84 -11 -84 -73 0 -62 -16 -67 -197
-67 -194 0 -193 -1 -193 111 l0 74 -105 103 c-88 86 -105 107 -105 133 0 59
-13 69 -93 69 -86 0 -117 16 -117 60 0 16 -4 40 -10 54 l-10 26 -174 0 c-128
0 -176 -3 -184 -13 -6 -7 -12 -32 -14 -57 -4 -56 -27 -70 -118 -70 -76 0 -90
-10 -90 -59 0 -20 -4 -41 -8 -47 -12 -18 -49 -34 -80 -34 -25 0 -49 -19 -134
-105 -94 -95 -108 -105 -141 -105 -47 0 -51 -10 -22 -50 14 -19 25 -39 25 -46
0 -24 -32 -44 -70 -44 -46 0 -70 -26 -70 -76 0 -40 -27 -64 -73 -64 -44 0 -67
-22 -67 -64 0 -56 -19 -69 -106 -77 -44 -4 -113 -8 -154 -8 -72 -1 -76 -2
-102 -33 l-27 -33 -188 -5 -188 -5 -6 -49 c-6 -58 -34 -86 -86 -86 -30 0 -45
-10 -104 -70 -61 -63 -72 -70 -107 -70 -70 0 -87 -56 -28 -91 41 -24 53 -61
31 -95 -14 -22 -22 -24 -106 -24 l-91 0 -32 35 c-26 28 -40 35 -71 35 -30 0
-44 7 -71 35 -32 34 -35 35 -109 35 -75 0 -77 1 -108 35 -28 32 -35 35 -88 35
-61 0 -108 13 -121 33 -4 7 -8 25 -8 40 0 61 -11 67 -123 67 -130 0 -149 9
-159 74 -4 27 -10 52 -15 56 -4 5 -43 10 -86 12 -75 3 -80 5 -106 36 -20 25
-37 35 -69 39 -50 7 -64 21 -77 82 -10 45 -11 46 -61 56 -69 14 -84 28 -84 81
0 54 -22 69 -92 61 -68 -8 -117 12 -118 50 0 6 11 25 25 41 14 17 25 33 25 36
0 3 -24 6 -52 7 -102 1 -151 36 -124 90 8 16 24 27 51 32 75 17 70 -12 71 358
1 184 -1 341 -3 350 -2 11 -19 19 -51 24 -37 5 -55 15 -82 44 -19 21 -41 40
-49 42 -7 3 -17 28 -22 59 -9 59 -19 70 -64 70 -47 0 -75 25 -75 66 0 56 -15
74 -59 74 -23 0 -48 8 -62 19 -23 18 -24 25 -27 173 -4 184 2 198 84 207 l49
6 5 54 c4 39 11 58 24 65 11 6 42 33 69 60 44 43 51 55 55 98 4 41 9 51 33 63
15 8 30 23 32 32 3 10 4 104 3 209 l-2 192 -82 81 c-70 70 -85 81 -115 81 -49
0 -77 26 -83 79 -3 25 -7 49 -10 53 -3 4 -55 8 -116 8 l-110 0 -32 35 -32 35
-317 0 -316 0 -21 -30 c-26 -37 -82 -43 -100 -11 -11 22 -14 944 -3 1266 7
221 12 235 76 235 61 0 61 2 58 179 -3 188 5 224 51 240 17 6 41 11 54 11 13
0 26 6 31 13 4 6 8 60 8 118 l0 106 59 54 c32 30 74 70 93 89 l34 35 153 3
c140 3 154 2 177 -17 l24 -19 -2 -193 -2 -193 -30 -31 c-16 -16 -48 -48 -70
-70 l-41 -40 0 -108 c0 -125 -12 -147 -78 -147 -54 0 -62 -13 -62 -102 0 -49
-4 -81 -12 -88 -7 -5 -24 -18 -37 -28 l-24 -19 -1 -376 c-1 -296 2 -379 12
-389 9 -9 60 -14 181 -16 l168 -4 35 37 c33 35 40 38 107 43 39 2 71 9 71 13
0 5 -9 18 -20 29 -11 11 -20 31 -20 44 0 40 35 56 117 56 81 0 93 9 93 73 0
42 17 57 72 64 52 6 68 24 68 74 0 46 27 69 80 69 29 0 44 9 83 49 39 40 47
55 47 85 0 49 28 76 79 76 46 0 56 11 68 70 12 60 33 70 154 70 104 0 113 4
124 55 4 17 9 37 11 47 8 27 61 38 193 38 l126 0 30 34 30 35 149 4 c163 5
166 6 166 69 0 47 19 65 78 74 54 8 62 16 62 65 0 46 25 68 87 77 l48 7 5 89
c4 72 8 91 24 100 10 6 40 32 67 59 l49 47 -2 172 -3 173 -50 8 c-82 13 -85
20 -85 226 l0 177 -32 32 c-18 17 -43 42 -55 54 -11 13 -28 29 -37 36 -13 10
-16 34 -16 122 0 99 -2 112 -21 129 -23 21 -26 24 -81 82 l-38 40 0 224 c0
256 0 257 81 270 24 4 47 13 51 19 4 6 8 57 8 112 0 122 11 142 80 151 33 5
53 15 76 40 25 27 39 33 72 33 43 0 52 10 52 60 0 42 9 59 41 75 22 12 29 24
35 62 5 35 15 56 38 78 17 17 38 40 47 50 9 11 23 25 33 30 11 7 17 27 20 69
3 58 2 61 -37 98 -32 33 -38 43 -32 66 3 15 11 31 16 37 5 5 96 11 201 13 136
2 195 6 200 15 4 7 8 28 8 48 0 68 -13 66 465 73 237 4 434 11 438 15 4 4 6
70 5 147 l-3 139 -393 3 c-332 2 -393 0 -398 -12z m-2990 -5619 c28 -30 39
-34 105 -41 40 -3 81 -11 92 -16 30 -16 41 -82 37 -223 -3 -115 -5 -131 -22
-141 -41 -24 -56 -46 -56 -84 0 -48 -20 -67 -80 -77 -52 -9 -60 -17 -60 -65 0
-19 -4 -40 -8 -47 -10 -16 -57 -33 -92 -33 -15 0 -30 -6 -33 -13 -8 -20 -8
-401 0 -412 5 -6 20 -18 36 -28 23 -15 27 -24 27 -62 l0 -44 213 -213 212
-212 0 -165 0 -165 -27 -16 c-25 -13 -31 -13 -55 0 -23 13 -29 24 -33 65 -7
70 -64 129 -132 139 -56 8 -78 33 -78 88 0 30 -5 41 -27 55 -16 9 -30 19 -33
21 -3 2 -7 43 -10 90 l-5 87 -51 10 c-69 13 -84 28 -84 79 0 49 -13 66 -53 66
-30 0 -67 16 -79 34 -4 6 -8 58 -8 116 l0 105 -41 40 c-106 106 -99 93 -99
172 0 46 -5 76 -12 83 -7 5 -24 19 -38 29 -24 19 -25 23 -25 137 0 104 -2 118
-19 128 -10 6 -26 20 -35 31 -9 10 -32 34 -51 53 l-35 33 -1 146 c0 101 -4
148 -12 151 -32 10 -55 41 -55 72 0 60 2 60 366 60 l330 0 31 -33z m7415
-1397 c45 -24 33 -143 -17 -171 -24 -14 -30 -25 -36 -67 -8 -58 -10 -61 -80
-76 l-51 -11 -5 -55 c-4 -32 -11 -55 -20 -58 -7 -3 -37 -28 -67 -57 -45 -45
-53 -58 -53 -89 0 -54 -35 -86 -95 -86 -36 0 -51 6 -71 26 -25 24 -26 30 -23
109 5 100 16 116 86 125 l48 5 7 55 c4 37 12 58 24 65 9 5 82 74 161 153 79
78 150 142 159 142 8 0 23 -4 33 -10z m-2640 -909 c9 -5 40 -32 69 -60 l52
-50 0 -109 c0 -71 4 -112 12 -120 7 -7 29 -12 50 -12 50 0 78 -28 78 -78 0
-48 14 -62 62 -62 30 0 44 -7 69 -35 l32 -35 168 0 169 0 31 35 c29 32 37 35
85 35 49 0 55 -3 80 -35 l26 -35 84 0 c78 0 85 -2 100 -25 20 -31 12 -70 -19
-86 -12 -7 -39 -27 -60 -45 -34 -32 -42 -34 -105 -34 -64 0 -70 -2 -100 -33
-106 -108 -95 -101 -174 -105 -68 -4 -75 -6 -105 -38 -31 -33 -34 -34 -108
-34 -74 0 -77 -1 -109 -35 -27 -28 -41 -35 -70 -35 -30 0 -44 -7 -70 -35 l-33
-35 -216 0 c-204 0 -217 -1 -227 -19 -5 -11 -10 -33 -10 -48 0 -16 -6 -38 -14
-49 -14 -18 -36 -19 -858 -22 -464 -1 -858 0 -876 3 -27 5 -37 14 -49 43 -25
59 -12 95 54 156 32 30 69 65 83 78 42 40 63 47 130 48 61 0 67 2 92 32 l27
33 221 3 221 3 10 26 c5 14 7 34 4 44 -10 31 37 69 84 69 46 0 61 18 61 74 0
42 28 66 78 66 29 0 47 15 152 121 111 111 120 123 120 158 0 48 21 67 85 78
l50 8 6 49 c6 57 22 71 85 81 32 4 49 13 61 32 9 14 26 29 37 33 29 12 353 12
375 1z"/>
<path d="M9729 9243 c-4 -42 -3 -177 2 -185 17 -27 26 9 25 93 -1 64 -5 94
-13 97 -7 2 -13 0 -14 -5z"/>
<path d="M10650 6491 c-5 -11 -10 -32 -10 -48 0 -15 -4 -33 -8 -40 -9 -15 -56
-33 -84 -33 -14 0 -59 -38 -125 -105 -102 -103 -105 -105 -151 -105 -49 0 -45
-3 -227 180 l-30 30 -242 0 c-271 0 -263 2 -263 -74 0 -43 -28 -66 -82 -66
-20 0 -40 -5 -44 -12 -4 -6 -7 -103 -7 -216 1 -226 -1 -222 65 -222 30 0 42
-6 64 -35 22 -29 33 -35 63 -35 49 0 81 -24 81 -60 0 -16 4 -40 10 -54 l10
-26 208 0 c148 0 211 3 220 12 7 7 12 29 12 50 0 68 21 78 158 78 138 0 162
-10 162 -66 0 -20 5 -44 10 -55 10 -18 26 -19 480 -19 413 0 470 -2 484 -16
23 -22 20 -48 -9 -82 -14 -17 -25 -33 -25 -36 0 -3 66 -6 146 -6 l146 0 32
-34 c22 -24 42 -35 72 -38 34 -5 53 -18 129 -94 81 -80 90 -92 95 -133 4 -35
11 -48 29 -57 13 -7 28 -18 32 -26 13 -19 11 -605 -1 -629 -6 -10 -17 -19 -24
-19 -26 0 -40 -31 -38 -83 4 -96 -27 -137 -104 -137 -13 0 -29 -9 -37 -20 -8
-11 -40 -42 -71 -70 -42 -37 -65 -50 -88 -50 -23 0 -40 -9 -64 -35 l-32 -35
-144 0 c-99 0 -148 -4 -156 -12 -7 -7 -12 -29 -12 -50 0 -25 -7 -45 -20 -58
-19 -19 -33 -20 -337 -20 -175 0 -324 -4 -331 -9 -8 -4 -16 -28 -19 -52 -10
-83 5 -79 -357 -79 l-321 0 -37 -37 c-101 -102 -103 -103 -178 -103 -66 0 -70
-1 -104 -37 -34 -36 -38 -38 -113 -41 -43 -3 -81 -9 -85 -16 -4 -6 -8 -27 -8
-46 0 -19 -4 -41 -8 -48 -12 -18 -69 -32 -133 -32 -63 0 -69 -6 -69 -70 0 -45
-16 -60 -72 -67 -58 -8 -68 -18 -68 -70 0 -39 -4 -46 -33 -63 -19 -11 -40 -31
-47 -45 -7 -14 -17 -25 -21 -25 -21 0 -39 -35 -39 -76 0 -39 -4 -47 -30 -62
-30 -17 -50 -56 -50 -98 0 -29 -35 -54 -77 -54 -37 0 -63 -29 -63 -70 0 -50
-20 -63 -109 -69 -73 -6 -84 -9 -104 -33 -28 -35 -66 -49 -112 -41 -43 7 -65
35 -65 84 0 32 -5 40 -35 58 -30 17 -35 26 -35 56 0 30 5 39 35 56 l35 21 0
114 c0 93 3 115 17 126 9 7 34 31 55 53 31 31 48 40 86 45 l47 5 7 55 c8 64
24 80 84 80 50 0 55 6 60 69 2 31 8 49 20 56 9 6 40 32 68 60 45 44 51 56 56
100 4 42 9 52 32 63 33 16 37 28 40 155 3 112 9 120 83 131 25 4 46 13 49 22
3 9 6 380 6 825 0 796 0 809 20 829 13 13 33 20 58 20 21 0 43 5 50 12 17 17
17 269 0 286 -17 17 -269 17 -286 0 -7 -7 -12 -42 -12 -85 0 -75 -1 -77 -54
-121 -10 -8 -16 -29 -16 -55 0 -49 -8 -64 -41 -81 l-24 -12 -5 -823 -5 -823
-24 -19 c-13 -10 -37 -19 -55 -19 -53 0 -59 -10 -60 -100 -1 -70 -4 -85 -20
-94 -18 -11 -103 -93 -137 -132 -9 -11 -26 -27 -38 -36 -15 -13 -21 -29 -21
-57 0 -50 -18 -68 -78 -77 -55 -8 -62 -15 -62 -70 0 -50 -14 -64 -72 -71 -58
-8 -70 -19 -68 -67 5 -116 -11 -146 -78 -146 -21 0 -43 -5 -50 -12 -17 -17
-17 -549 0 -566 7 -7 31 -12 53 -12 53 0 75 -23 75 -76 0 -22 5 -45 12 -52 9
-9 95 -12 325 -12 299 0 313 1 323 19 5 11 10 35 10 54 0 45 26 67 78 67 47 0
62 17 62 74 0 43 28 66 82 66 43 0 58 19 58 73 0 42 22 63 78 72 32 5 55 18
88 50 40 39 44 48 44 89 0 43 3 48 35 67 31 18 35 26 35 60 0 35 7 46 52 90
68 66 75 69 153 69 61 0 66 2 75 26 6 14 10 38 10 54 0 49 29 60 152 60 119 0
120 0 128 70 8 68 15 70 295 70 l240 0 30 29 c64 62 97 92 113 100 10 5 172
10 362 10 l345 1 32 35 32 35 144 0 c104 0 147 4 154 13 6 6 13 32 16 57 3 25
13 50 23 57 15 11 107 19 151 14 18 -2 43 40 43 75 0 46 25 63 111 70 40 4 80
11 87 17 6 5 12 29 12 52 0 51 14 65 72 72 30 4 52 15 75 37 17 17 36 36 42
41 7 6 22 21 35 35 13 14 31 31 40 38 11 9 15 31 14 89 0 70 2 78 23 95 13 9
31 25 39 35 8 9 30 30 48 47 l32 30 0 306 c0 225 -3 309 -12 318 -7 7 -29 12
-49 12 -21 0 -47 8 -59 18 -20 16 -22 27 -22 92 1 41 -4 80 -10 87 -6 7 -26
13 -45 13 -30 0 -46 12 -136 103 -56 56 -115 110 -130 120 -22 14 -27 25 -27
55 0 64 -12 70 -130 76 -58 2 -113 8 -123 12 -22 8 -37 43 -37 84 0 16 -5 32
-11 36 -6 3 -233 7 -506 8 l-495 1 -29 33 c-24 27 -39 34 -76 37 -91 7 -102
61 -27 131 52 49 80 64 119 64 29 0 45 26 45 75 0 32 4 38 35 51 19 7 45 14
57 14 15 0 50 28 106 84 l82 84 0 54 c0 30 -5 59 -12 66 -8 8 -56 12 -150 12
-126 0 -138 -2 -148 -19z m-627 -484 c32 -32 57 -63 57 -70 0 -7 -7 -23 -16
-35 -15 -21 -21 -22 -176 -22 l-160 0 -26 28 c-15 15 -39 35 -54 45 -22 13
-28 25 -28 52 0 59 22 66 196 63 l151 -3 56 -58z"/>
</g>
</svg>
