<?xml version="1.0" standalone="no"?>
<!DOCTYPE svg PUBLIC "-//W3C//DTD SVG 20010904//EN"
 "http://www.w3.org/TR/2001/REC-SVG-20010904/DTD/svg10.dtd">
<svg version="1.0" xmlns="http://www.w3.org/2000/svg"
 width="1898.000000pt" height="419.000000pt" viewBox="0 0 1898.000000 419.000000"
 preserveAspectRatio="xMidYMid meet">

<g transform="translate(0.000000,419.000000) scale(0.100000,-0.100000)"
fill="#000000" stroke="none">
<path d="M2358 4158 c-56 -9 -67 -13 -70 -31 -2 -13 -13 -23 -28 -27 -15 -4
-26 -15 -30 -30 -4 -15 -14 -26 -27 -28 -13 -2 -25 -14 -32 -33 -7 -19 -17
-29 -30 -29 -17 0 -21 -6 -21 -36 0 -30 -4 -37 -30 -46 l-30 -10 2 -231 c3
-223 4 -232 23 -236 30 -5 35 -19 35 -98 0 -66 2 -73 20 -73 22 0 44 -34 36
-55 -2 -7 4 -24 15 -36 11 -13 19 -34 17 -48 -2 -20 2 -26 22 -31 16 -4 26
-14 28 -29 2 -14 14 -26 32 -33 26 -9 29 -15 32 -61 2 -43 7 -52 23 -55 41 -8
65 -42 65 -93 0 -42 3 -48 22 -51 13 -2 24 -11 26 -23 7 -39 42 -65 88 -65 26
0 46 5 51 14 4 8 17 15 28 17 11 3 21 14 23 25 2 12 16 34 33 49 19 19 29 39
29 57 0 17 9 38 23 51 13 12 27 34 31 50 3 15 11 27 16 27 6 0 10 8 10 18 0
23 19 42 42 42 14 0 18 8 18 36 0 27 7 41 30 61 22 18 30 33 30 58 0 18 7 38
15 45 8 7 15 27 15 45 0 18 7 38 15 45 8 7 15 20 15 29 0 9 6 23 12 29 8 8 11
38 9 86 -3 81 9 116 40 116 19 0 19 6 17 163 -3 159 -3 162 -25 165 -20 3 -23
9 -23 51 0 51 -24 85 -65 93 -11 2 -22 14 -25 28 -5 20 -13 26 -45 30 -39 5
-43 10 -31 40 5 13 -13 15 -135 12 -107 -2 -139 -6 -130 -15 17 -17 13 -37 -8
-37 -25 0 -36 17 -21 35 9 10 7 14 -7 19 -41 12 -112 13 -175 4z m160 -66 c3
-16 -2 -22 -16 -22 -24 0 -35 23 -19 39 16 16 31 8 35 -17z m-58 -57 c0 -20
-5 -25 -25 -25 -18 0 -25 -5 -25 -19 0 -10 -7 -24 -15 -31 -8 -7 -15 -20 -15
-30 0 -10 -7 -23 -15 -30 -8 -7 -15 -20 -15 -30 0 -10 -7 -23 -15 -30 -11 -10
-15 -36 -15 -112 0 -78 3 -100 15 -104 8 -4 15 -16 15 -29 0 -12 7 -28 15 -35
8 -7 15 -20 15 -30 0 -10 6 -20 14 -23 8 -3 16 -16 18 -29 2 -13 11 -24 22
-26 11 -3 26 -10 34 -18 7 -8 19 -14 26 -14 7 0 23 -11 36 -25 20 -21 32 -25
86 -25 57 0 63 2 66 23 2 14 11 23 25 25 12 2 27 10 33 18 7 8 21 14 31 14 16
0 19 8 19 48 0 51 12 72 42 72 15 0 18 9 18 60 0 45 -3 60 -14 60 -23 0 -46
29 -46 59 0 38 -55 89 -100 93 -27 2 -36 8 -38 26 -4 23 -5 24 -52 24 -16 0
-35 -1 -40 -1 -7 -1 -10 -23 -8 -58 l3 -58 45 -3 c50 -4 70 -16 70 -43 0 -14
7 -19 25 -19 26 0 35 -23 14 -36 -8 -4 -8 -9 0 -17 17 -17 13 -36 -14 -61 -16
-15 -25 -34 -25 -53 0 -40 -17 -53 -70 -53 -49 0 -70 13 -70 42 0 13 -8 18
-26 18 -24 0 -26 3 -20 30 5 25 2 30 -15 30 -19 0 -19 6 -17 123 3 118 4 122
26 125 18 3 22 10 22 38 0 41 15 74 34 74 8 0 19 7 26 15 10 12 39 15 138 15
115 0 128 -2 149 -22 13 -12 23 -29 23 -39 0 -10 10 -21 23 -25 12 -4 25 -12
29 -18 4 -6 8 -81 8 -167 0 -127 -3 -159 -15 -169 -8 -7 -15 -23 -15 -36 0
-13 -7 -27 -14 -31 -10 -6 -16 -29 -18 -73 -3 -59 -5 -65 -28 -70 -22 -5 -26
-12 -30 -60 -4 -48 -8 -55 -30 -60 -20 -5 -25 -12 -25 -37 -1 -16 -8 -38 -18
-47 -9 -10 -17 -30 -17 -45 0 -16 -10 -37 -25 -51 -16 -15 -25 -34 -25 -55 0
-35 -15 -55 -42 -55 -14 0 -18 -8 -18 -34 0 -18 -6 -39 -14 -46 -8 -6 -16 -21
-18 -33 -4 -30 -42 -30 -46 0 -2 12 -10 27 -18 33 -8 7 -14 27 -14 46 0 26 -4
33 -22 36 -15 2 -24 11 -26 26 -2 15 -14 27 -32 34 -24 8 -29 16 -32 46 -2 28
-8 38 -23 41 -27 5 -35 19 -35 67 0 25 -6 47 -15 54 -8 7 -15 21 -15 31 0 12
-7 19 -20 19 -27 0 -40 29 -40 89 0 46 -2 51 -25 57 -26 7 -28 17 -30 183 0
26 -5 46 -12 48 -19 7 -17 88 2 103 10 8 15 30 15 61 0 44 3 49 25 55 22 5 25
12 25 50 0 34 6 48 27 69 16 14 40 25 56 25 16 0 30 6 32 15 3 8 7 22 10 30 3
10 18 15 50 15 41 0 45 -2 45 -25z"/>
<path d="M1669 3870 c-33 -29 -37 -30 -135 -30 -78 0 -104 -3 -114 -15 -7 -8
-27 -15 -45 -15 -18 0 -38 -7 -45 -15 -7 -8 -20 -15 -30 -15 -10 0 -20 -7 -23
-14 -4 -10 -24 -16 -59 -18 -44 -2 -53 -6 -57 -23 -4 -25 -19 -35 -52 -35 -14
0 -36 -11 -49 -25 -16 -17 -34 -25 -56 -25 -17 0 -37 -7 -44 -15 -7 -8 -25
-15 -41 -15 -26 0 -28 -2 -22 -30 5 -29 5 -30 -36 -30 -33 0 -41 -4 -41 -18 0
-23 -19 -42 -42 -42 -11 0 -18 -7 -18 -21 0 -13 -11 -25 -34 -34 -19 -8 -37
-19 -41 -25 -3 -5 -19 -10 -36 -10 -18 0 -29 -5 -29 -14 0 -8 -27 -42 -60 -76
-61 -63 -71 -84 -45 -94 8 -3 15 -14 15 -25 0 -34 20 -35 54 -2 18 17 39 31
47 31 20 0 44 27 58 63 7 17 18 27 31 27 13 0 20 7 20 20 0 22 28 40 64 40 18
0 25 6 28 23 2 14 11 23 25 25 12 2 27 10 33 18 7 8 25 14 41 14 26 0 28 2 22
30 -5 29 -5 30 34 30 30 0 46 7 67 29 17 18 41 31 60 33 23 2 32 9 34 24 3 18
12 23 54 28 28 4 60 14 72 22 26 18 75 18 82 -1 9 -23 -27 -94 -50 -97 -12 -2
-23 -13 -26 -28 -4 -15 -15 -26 -30 -30 -15 -4 -26 -14 -28 -27 -2 -13 -15
-25 -33 -32 -24 -8 -29 -14 -24 -33 6 -28 -3 -44 -30 -49 -19 -4 -20 -13 -23
-137 -2 -126 -2 -132 17 -132 27 0 31 -9 35 -92 4 -66 7 -74 30 -86 23 -12 26
-19 26 -71 0 -40 5 -63 15 -71 21 -18 21 -172 0 -190 -8 -7 -15 -27 -15 -45 0
-34 -13 -45 -55 -45 -12 0 -28 -7 -35 -15 -8 -10 -36 -15 -88 -17 -70 -3 -77
-5 -80 -24 -3 -23 -27 -34 -78 -34 -20 0 -39 -9 -54 -25 -13 -14 -31 -25 -41
-25 -9 0 -22 -6 -29 -14 -6 -8 -21 -16 -33 -18 -13 -2 -23 -13 -27 -28 -4 -15
-15 -26 -30 -30 -15 -4 -26 -14 -28 -27 -4 -25 -104 -123 -126 -123 -8 0 -16
-10 -18 -22 -2 -17 -11 -24 -32 -26 -39 -5 -54 12 -33 36 13 14 17 37 17 89 0
51 4 74 15 83 8 7 15 18 15 26 0 7 13 28 29 47 23 25 31 45 33 82 3 43 6 50
28 55 l25 6 0 129 c0 122 -1 130 -20 134 -11 2 -33 16 -49 32 -29 28 -33 29
-128 29 -89 0 -98 -2 -98 -19 0 -24 -18 -38 -55 -43 -20 -2 -31 -9 -34 -22 -3
-20 -41 -56 -70 -67 -10 -4 -16 -22 -18 -49 -2 -24 -7 -48 -13 -54 -5 -5 -10
-18 -10 -27 0 -9 -7 -22 -15 -29 -10 -8 -15 -31 -15 -71 0 -41 -5 -62 -17 -75
-16 -15 -17 -50 -18 -384 0 -337 1 -370 17 -387 14 -15 18 -37 18 -92 0 -63 3
-75 25 -99 18 -20 25 -38 25 -68 0 -24 6 -47 14 -54 8 -6 16 -28 18 -48 2 -29
8 -37 28 -42 22 -5 25 -12 28 -56 2 -41 9 -57 32 -79 17 -16 30 -37 30 -47 0
-11 7 -18 20 -18 24 0 40 -28 40 -73 0 -36 19 -60 58 -71 12 -4 22 -15 22 -25
0 -10 6 -24 14 -31 8 -6 16 -21 18 -33 2 -13 13 -23 28 -27 15 -4 26 -14 28
-27 4 -25 104 -123 126 -123 8 0 16 -10 18 -22 2 -14 12 -24 28 -28 15 -4 26
-15 30 -30 4 -15 14 -26 27 -28 12 -2 27 -10 33 -18 7 -8 20 -14 30 -14 11 0
22 -12 29 -30 6 -19 17 -30 29 -30 13 0 22 -9 26 -25 5 -20 13 -25 35 -25 16
0 36 -7 45 -15 8 -8 21 -15 28 -15 8 0 27 -13 43 -30 22 -23 38 -30 79 -32 44
-3 51 -6 56 -28 5 -20 13 -26 45 -30 32 -4 40 -10 45 -30 5 -24 10 -25 80 -28
41 -2 79 -7 86 -12 6 -6 40 -13 75 -16 35 -4 70 -12 78 -18 21 -17 776 -15
793 1 6 7 30 13 53 13 22 0 50 7 61 15 13 8 51 15 95 17 69 3 74 4 79 28 5 20
13 26 42 28 23 2 45 13 64 33 18 19 38 29 57 29 18 0 42 11 64 30 18 16 40 30
48 30 7 0 15 5 17 11 2 6 22 14 43 18 31 5 41 11 43 29 2 14 10 22 22 22 11 0
26 13 35 30 9 17 24 30 34 30 10 0 21 6 24 14 3 8 22 16 44 18 30 2 38 8 43
28 4 16 14 26 28 28 14 2 22 10 22 24 0 13 10 24 30 31 17 6 30 19 30 27 0 21
38 57 65 62 11 2 21 13 23 25 2 12 10 27 18 33 8 7 14 21 14 32 0 10 7 21 15
24 8 4 15 16 15 29 0 15 7 25 23 29 12 3 37 19 55 35 24 22 32 38 32 64 0 25
7 38 30 55 19 14 30 32 30 46 0 13 7 26 15 30 8 3 15 14 15 24 0 11 7 25 15
32 8 7 15 20 15 30 0 10 6 23 14 30 8 6 16 28 18 48 2 29 8 37 27 42 23 5 25
10 22 61 -2 51 1 59 28 87 28 27 31 37 31 91 0 34 -4 61 -10 61 -13 0 -13 37
0 45 6 4 10 133 10 356 0 226 -4 349 -10 349 -5 0 -10 9 -10 19 0 11 5 23 10
26 6 3 10 33 10 66 0 51 -3 59 -19 59 -30 0 -43 25 -40 80 2 44 -1 55 -24 80
-17 17 -27 39 -27 58 0 16 -7 35 -15 42 -8 7 -15 20 -15 30 0 10 -7 23 -15 30
-8 7 -15 20 -15 30 0 10 -7 23 -15 30 -8 7 -15 20 -15 29 0 10 -13 30 -30 46
-22 21 -30 38 -30 62 0 27 -4 33 -21 33 -13 0 -23 10 -30 29 -7 19 -19 31 -32
33 -14 2 -23 11 -25 26 -2 13 -10 26 -18 29 -8 3 -14 15 -14 28 0 17 -7 24
-30 29 -22 4 -30 11 -30 27 0 12 -13 34 -29 48 -16 14 -30 35 -32 46 -2 11
-15 22 -29 25 -16 4 -26 14 -28 28 -3 17 -10 22 -31 22 -19 0 -40 14 -71 45
-34 35 -51 45 -76 45 -18 0 -36 5 -39 10 -14 22 -25 8 -25 -30 0 -27 5 -43 15
-46 8 -4 15 -17 15 -30 0 -19 5 -24 26 -24 36 0 64 -17 64 -40 0 -13 7 -20 21
-20 13 0 23 -10 30 -30 7 -18 18 -30 28 -30 21 0 58 -38 63 -65 2 -11 14 -22
28 -25 15 -4 26 -14 28 -27 2 -11 16 -33 33 -48 16 -16 29 -37 29 -47 0 -11 7
-18 20 -18 25 0 43 -34 38 -72 -4 -24 0 -31 18 -38 42 -16 63 -46 66 -97 3
-41 6 -48 28 -53 22 -5 25 -12 28 -56 2 -41 9 -57 32 -79 25 -24 30 -37 30
-76 0 -29 6 -51 15 -59 11 -9 15 -34 15 -96 l0 -83 28 2 27 2 1 -330 c0 -181
-2 -338 -4 -348 -2 -9 -15 -20 -28 -23 -23 -6 -24 -9 -24 -109 0 -103 0 -103
-31 -129 -17 -14 -37 -26 -45 -26 -8 0 -14 -8 -14 -18 0 -19 -158 -182 -177
-182 -7 0 -11 -12 -10 -27 2 -20 -3 -28 -18 -31 -11 -2 -38 -21 -60 -42 -22
-21 -49 -40 -60 -42 -11 -2 -22 -14 -25 -28 -4 -15 -14 -26 -27 -28 -13 -2
-25 -14 -32 -33 -7 -19 -17 -29 -30 -29 -20 0 -21 -6 -21 -101 0 -96 1 -103
26 -126 34 -31 28 -57 -14 -61 -28 -3 -31 -6 -22 -22 12 -23 -2 -34 -45 -35
-23 0 -30 -5 -35 -25 -4 -15 -15 -26 -30 -30 -15 -4 -26 -15 -30 -30 -3 -14
-14 -26 -25 -28 -11 -2 -25 -11 -32 -19 -15 -19 -43 -10 -43 13 0 9 8 23 17
29 16 12 17 15 1 32 -9 10 -18 27 -20 38 -3 16 -12 20 -43 22 -22 1 -46 2 -54
2 -9 1 -12 9 -9 26 5 22 2 25 -23 25 -24 0 -29 -4 -29 -25 0 -26 0 -26 -77
-23 l-78 3 -3 35 c-3 25 -16 48 -48 82 -24 26 -44 54 -44 62 0 10 -12 16 -37
18 -31 2 -39 7 -41 26 -3 20 -8 22 -73 22 -38 0 -72 0 -76 1 -5 0 -10 -10 -13
-23 -5 -18 -14 -24 -42 -26 -30 -3 -38 -8 -47 -33 -6 -18 -17 -29 -28 -29 -11
0 -39 -20 -63 -45 -24 -25 -50 -45 -57 -45 -11 0 -11 -5 -3 -20 9 -16 8 -21
-5 -25 -8 -3 -21 -7 -29 -9 -8 -3 -16 -15 -18 -28 -2 -15 -11 -24 -25 -26 -13
-2 -25 -14 -32 -33 -10 -28 -12 -29 -74 -29 -45 0 -68 -5 -77 -15 -9 -11 -33
-15 -86 -15 -65 0 -74 -2 -74 -18 0 -22 -19 -42 -40 -42 -9 0 -27 -11 -40 -25
-13 -14 -31 -25 -41 -25 -26 0 -33 -19 -15 -39 9 -10 16 -25 16 -34 0 -23 -82
-24 -100 -2 -7 8 -20 15 -30 15 -10 0 -23 7 -30 15 -7 8 -26 15 -42 15 -16 0
-36 7 -44 15 -9 8 -29 15 -45 15 -22 0 -32 6 -39 25 -8 20 -16 25 -45 25 -46
0 -75 15 -75 40 0 16 -7 20 -34 20 -18 0 -39 6 -46 14 -6 8 -21 16 -33 18 -13
2 -23 13 -27 28 -4 15 -15 26 -30 30 -15 4 -27 15 -30 30 -4 18 -13 25 -30 27
-14 0 -31 1 -39 2 -9 1 -12 9 -9 26 4 19 1 25 -13 25 -50 0 -67 34 -24 50 l25
10 0 145 c0 134 -1 145 -18 145 -22 0 -57 36 -66 67 -4 12 -17 23 -29 25 -14
2 -23 11 -25 25 -2 13 -14 25 -33 32 -28 10 -29 11 -29 81 0 70 0 71 30 77 20
4 30 11 30 24 0 10 13 32 30 49 16 17 30 40 30 50 0 11 5 20 10 20 6 0 10 37
10 91 0 85 -2 92 -28 118 -15 15 -39 31 -55 34 -20 6 -27 13 -27 32 0 23 -4
25 -49 25 -31 0 -53 5 -61 15 -19 23 -256 22 -282 -2 -40 -36 -43 -8 -40 309
l3 298 24 6 c24 6 25 10 25 78 0 74 9 96 42 96 15 0 18 8 18 48 0 42 4 52 38
85 38 37 40 38 108 35 l69 -3 3 -81 c3 -79 2 -83 -28 -115 -24 -26 -30 -43
-30 -76 0 -37 -4 -45 -25 -53 -19 -7 -25 -17 -25 -39 0 -16 -6 -36 -14 -44
-17 -17 -30 -210 -19 -282 l8 -50 73 -3 c58 -2 73 0 78 13 4 9 19 15 40 15 36
0 42 8 22 28 -17 17 0 30 42 34 27 2 35 8 40 28 4 15 14 26 27 28 13 2 24 13
27 28 4 13 12 24 20 24 22 0 64 39 68 62 2 13 12 24 26 28 12 3 28 16 35 30
10 20 22 26 62 30 42 4 51 9 53 27 3 19 11 23 72 29 39 4 75 13 81 20 7 9 32
14 69 14 53 0 58 2 64 24 4 15 15 26 28 28 14 2 24 12 28 28 4 15 15 26 30 30
19 4 26 13 28 38 2 18 15 46 30 62 24 26 27 37 27 97 -1 63 -3 68 -25 73 -24
6 -25 10 -28 86 -3 75 -5 83 -32 109 -25 24 -30 37 -30 77 0 26 -4 48 -9 48
-5 0 -19 15 -30 34 -16 26 -21 50 -21 105 0 80 11 111 40 111 16 0 19 9 22 52
2 44 6 53 23 56 11 2 27 10 35 17 8 7 24 15 35 17 11 2 21 13 23 25 2 12 10
27 18 33 8 7 14 20 14 29 0 10 11 28 25 41 28 26 33 71 11 90 -32 25 -7 39 77
42 77 3 81 4 87 28 l6 25 182 3 183 2 -3 63 -3 62 -151 3 -151 3 -34 -31z
m-1214 -2274 c11 -7 36 -16 57 -20 20 -4 39 -14 42 -22 12 -32 6 -121 -9 -134
-8 -7 -15 -21 -15 -32 0 -13 -11 -24 -30 -31 -17 -6 -30 -20 -32 -31 -2 -12
-13 -23 -28 -26 -24 -6 -25 -9 -28 -93 -2 -71 0 -88 13 -93 8 -3 15 -16 15
-28 1 -13 34 -54 91 -111 l90 -89 -3 -66 c-3 -59 -5 -65 -25 -68 -19 -3 -23 1
-23 21 0 26 -20 47 -62 65 -17 7 -28 19 -28 31 0 10 -7 24 -15 31 -8 7 -15 28
-15 46 0 28 -4 34 -21 34 -13 0 -23 10 -30 29 -7 19 -19 31 -32 33 -18 2 -23
11 -25 47 -2 31 -12 56 -33 82 -16 20 -29 48 -29 62 0 13 -7 30 -15 37 -9 8
-15 30 -15 57 0 36 -6 52 -30 80 -25 28 -30 42 -30 83 0 28 -5 59 -12 69 -6
10 -8 26 -5 35 5 14 25 16 134 16 92 0 134 -4 148 -14z m3053 -602 c2 -11 -6
-28 -18 -39 -11 -10 -20 -26 -20 -36 0 -11 -10 -21 -25 -25 -14 -4 -25 -13
-25 -23 0 -10 -13 -30 -29 -46 -17 -15 -31 -37 -33 -49 -2 -16 -11 -22 -35
-24 -28 -3 -33 1 -39 22 -10 40 3 74 28 78 12 2 25 12 28 23 3 12 32 49 65 83
62 65 97 77 103 36z m-1062 -371 c20 -22 25 -36 22 -67 -3 -35 0 -41 22 -46
15 -4 26 -15 30 -30 4 -15 14 -26 27 -28 12 -2 27 -10 33 -18 17 -20 143 -20
160 1 16 19 54 19 70 1 6 -8 28 -16 48 -18 50 -4 53 -29 9 -57 -19 -11 -44
-21 -56 -21 -12 0 -34 -11 -49 -25 -15 -14 -39 -25 -53 -25 -15 0 -32 -7 -39
-15 -7 -8 -27 -15 -45 -15 -18 0 -38 -7 -45 -15 -7 -8 -20 -15 -30 -15 -10 0
-23 -7 -30 -15 -9 -11 -35 -15 -106 -15 -84 0 -94 -2 -94 -18 0 -41 -10 -42
-370 -42 -363 0 -370 1 -370 44 0 28 78 96 111 96 14 0 31 6 37 13 8 7 51 14
105 17 86 5 92 6 95 28 2 13 10 22 21 22 22 0 41 19 41 42 0 12 8 18 23 18 28
0 117 91 117 119 0 14 9 23 26 27 14 4 30 17 34 30 6 15 18 24 30 24 11 0 23
7 26 15 5 12 25 15 91 15 79 0 86 -2 109 -27z"/>
<path d="M2000 3695 c0 -8 2 -15 4 -15 2 0 6 7 10 15 3 8 1 15 -4 15 -6 0 -10
-7 -10 -15z"/>
<path d="M2000 3649 c0 -11 4 -18 10 -14 5 3 7 12 3 20 -7 21 -13 19 -13 -6z"/>
<path d="M2379 2571 c-7 -20 -18 -31 -30 -31 -11 0 -39 -20 -62 -45 -24 -25
-52 -45 -63 -45 -11 0 -40 20 -64 45 l-44 45 -96 0 -96 0 -11 -30 c-8 -20 -18
-30 -32 -30 -20 0 -21 -5 -21 -90 0 -81 2 -90 19 -90 10 0 24 -6 31 -14 6 -8
21 -16 33 -18 13 -2 23 -13 27 -28 6 -24 8 -25 95 -25 87 0 89 1 95 25 5 23
10 25 65 25 55 0 60 -2 65 -25 l6 -25 198 -3 198 -2 -6 -30 -5 -30 52 0 c33 0
67 -7 92 -20 49 -25 105 -79 105 -101 0 -9 7 -22 15 -29 12 -10 15 -38 15
-131 0 -91 -3 -121 -15 -133 -8 -8 -15 -26 -15 -40 0 -26 -23 -56 -44 -56 -7
0 -21 -9 -31 -20 -31 -34 -98 -60 -154 -60 -49 0 -53 -2 -62 -30 l-11 -30
-139 0 -139 0 0 -24 c0 -13 -7 -27 -16 -30 -9 -3 -74 -6 -145 -6 -71 0 -129
-3 -129 -7 0 -14 -66 -53 -89 -53 -12 0 -29 -7 -37 -15 -9 -8 -28 -15 -44 -15
-22 0 -29 -5 -32 -22 -2 -18 -11 -24 -43 -28 -31 -4 -40 -10 -45 -30 -4 -15
-15 -26 -30 -30 -14 -3 -26 -15 -28 -25 -2 -11 -14 -31 -27 -45 -12 -14 -26
-35 -29 -47 -4 -11 -13 -27 -21 -33 -8 -7 -15 -21 -15 -31 0 -12 -7 -19 -19
-19 -12 0 -25 -11 -33 -27 -9 -20 -22 -29 -43 -31 -17 -2 -38 -10 -47 -19 -24
-22 -62 -13 -66 15 -2 13 -10 26 -18 29 -18 7 -18 37 0 52 8 7 13 29 13 51 -1
44 32 90 65 90 11 0 18 7 18 18 0 23 19 42 42 42 12 0 18 7 18 21 0 11 14 32
30 46 17 14 30 34 30 48 0 12 7 25 15 29 11 4 15 20 15 55 0 45 2 50 29 59
l28 10 2 333 c1 183 4 337 7 341 3 4 14 8 25 8 18 0 20 6 17 63 l-3 62 -55 0
c-54 0 -55 0 -58 -32 -2 -17 -10 -37 -18 -43 -8 -7 -14 -23 -14 -37 0 -13 -7
-26 -15 -29 -13 -5 -15 -52 -15 -338 0 -182 -4 -336 -8 -342 -4 -7 -16 -13
-27 -15 -14 -3 -21 -13 -23 -37 -2 -22 -17 -46 -48 -77 -24 -25 -44 -54 -44
-65 0 -14 -7 -20 -21 -20 -13 0 -23 -10 -30 -30 -8 -22 -17 -30 -35 -30 -20 0
-24 -5 -24 -33 0 -37 -15 -57 -42 -57 -17 0 -18 -9 -16 -117 3 -115 3 -117 28
-123 15 -4 26 -15 30 -30 6 -25 7 -25 125 -27 65 0 124 1 131 4 7 2 14 14 16
26 2 13 13 23 28 27 15 4 26 15 30 30 4 15 15 26 30 30 15 4 26 15 30 30 3 14
15 26 25 28 27 5 55 32 55 52 0 10 7 23 15 30 8 7 15 20 15 29 0 25 40 55 80
61 26 4 36 11 40 30 5 22 12 25 58 28 43 3 52 6 52 22 0 30 32 40 132 40 86 0
95 2 120 25 26 24 31 25 171 25 116 0 147 3 157 15 9 10 32 15 75 15 61 0 63
1 74 30 8 26 15 30 45 30 29 0 36 4 36 19 0 24 18 38 55 43 22 2 31 9 33 25 2
15 13 25 30 30 37 9 82 62 82 95 0 18 10 37 30 55 l30 26 0 134 0 133 -24 0
c-25 0 -36 16 -36 55 0 15 -7 26 -20 30 -26 8 -117 99 -122 122 -2 14 -14 19
-56 21 -49 3 -53 5 -59 33 l-5 29 -202 0 c-183 0 -206 2 -244 20 -23 11 -42
24 -42 28 0 14 44 50 65 54 11 2 22 14 25 28 3 15 14 26 26 28 12 2 36 18 53
36 24 25 32 41 29 62 -3 27 -6 29 -56 32 -51 3 -53 2 -63 -27z m-257 -178 c10
-9 18 -24 18 -35 0 -16 -9 -18 -70 -18 -74 0 -110 17 -110 52 0 16 10 18 72
18 52 0 76 -4 90 -17z"/>
<path d="M9254 2585 c-10 -8 -38 -15 -60 -15 -24 0 -47 -6 -54 -14 -6 -8 -28
-16 -48 -18 -29 -2 -37 -8 -42 -28 -3 -14 -14 -26 -25 -28 -27 -5 -65 -42 -65
-63 0 -9 -6 -19 -13 -22 -7 -2 -21 -22 -32 -43 -11 -22 -23 -42 -27 -45 -5 -3
-11 -40 -15 -83 -5 -69 -9 -79 -30 -87 -19 -7 -23 -16 -23 -53 0 -38 3 -45 25
-50 23 -6 25 -11 25 -65 0 -44 5 -64 21 -82 11 -13 18 -32 15 -42 -2 -11 7
-31 24 -50 15 -18 29 -41 31 -52 2 -11 14 -21 25 -23 11 -2 40 -23 64 -47 30
-30 53 -45 70 -45 14 0 31 -5 37 -11 7 -7 17 -8 28 -1 12 6 27 5 47 -6 36 -17
221 -13 241 7 6 6 36 11 67 11 l55 0 83 83 c63 63 82 89 82 110 0 20 7 30 25
37 21 8 25 16 25 54 0 26 6 48 15 56 12 10 15 38 15 130 0 92 -3 120 -15 130
-8 7 -15 27 -15 46 0 26 -4 33 -22 36 -18 2 -24 12 -29 43 -4 21 -12 41 -18
43 -6 2 -11 13 -11 23 0 13 -10 24 -30 30 -16 6 -30 15 -30 19 0 5 -10 10 -22
12 -13 2 -29 15 -36 31 -10 20 -20 27 -41 27 -16 0 -34 7 -41 15 -8 9 -30 15
-60 15 -30 0 -52 6 -60 15 -17 20 -129 21 -156 0z m111 -245 c3 -5 32 -10 64
-10 46 0 63 -5 84 -23 15 -12 27 -30 27 -38 0 -8 14 -28 30 -44 30 -29 30 -30
30 -138 0 -109 0 -110 -30 -139 -16 -15 -30 -37 -30 -48 0 -13 -9 -22 -27 -26
-15 -4 -34 -13 -41 -21 -10 -9 -47 -13 -135 -13 -109 0 -124 2 -154 23 -20 13
-33 30 -33 43 0 12 -7 24 -15 28 -8 3 -15 13 -15 22 0 9 -13 33 -30 54 -25 31
-30 47 -30 90 0 43 5 59 30 90 17 21 30 49 30 62 0 14 12 36 28 51 25 24 36
27 99 27 40 0 75 5 78 10 3 6 12 10 20 10 8 0 17 -4 20 -10z"/>
<path d="M11977 2593 c-4 -3 -7 -13 -7 -22 0 -9 -14 -29 -30 -45 -25 -24 -30
-37 -30 -77 0 -32 -5 -49 -14 -52 -10 -4 -16 -24 -18 -59 -3 -46 -6 -53 -28
-58 -21 -5 -25 -11 -22 -37 2 -18 -3 -35 -13 -43 -8 -7 -15 -25 -15 -41 0 -18
-11 -39 -30 -59 -26 -27 -30 -38 -30 -89 0 -40 -5 -63 -15 -71 -8 -7 -15 -25
-15 -41 0 -17 -12 -42 -30 -62 -16 -19 -30 -41 -30 -50 0 -8 -7 -20 -15 -27
-9 -8 -15 -30 -15 -60 0 -34 -4 -50 -16 -54 -10 -4 -14 -15 -12 -33 3 -31 -6
-30 153 -19 33 2 66 0 72 -6 15 -12 54 29 46 48 -2 7 1 22 7 33 10 21 17 21
153 19 l142 -3 3 -37 c3 -32 7 -38 34 -43 17 -4 65 -7 107 -7 42 0 82 -5 89
-10 19 -16 17 106 -3 122 -8 7 -15 27 -15 46 0 26 -4 33 -22 36 -18 2 -24 10
-26 40 -2 20 -10 42 -18 48 -8 7 -14 30 -14 55 0 26 -6 48 -15 55 -8 7 -15 20
-15 30 0 10 -7 23 -15 30 -8 7 -15 27 -15 45 0 18 -7 38 -15 45 -8 7 -15 27
-15 45 0 27 -5 34 -25 39 -19 5 -25 13 -25 34 0 15 -7 37 -15 49 -8 12 -18 49
-21 82 -5 45 -13 66 -30 82 -16 15 -24 34 -24 54 0 49 -65 97 -93 68z m47
-519 c3 -9 6 -31 6 -51 0 -19 7 -41 15 -50 19 -18 4 -43 -25 -43 -11 0 -20
-10 -24 -26 -5 -17 -12 -24 -24 -22 -23 4 -29 56 -8 64 12 5 16 21 16 68 0 35
3 66 7 69 11 12 31 7 37 -9z m26 -180 c0 -14 -21 -19 -33 -7 -9 9 13 34 24 27
5 -3 9 -12 9 -20z"/>
<path d="M12545 2578 c-3 -13 -4 -237 -3 -498 l3 -475 90 0 90 0 5 255 c4 227
7 255 22 258 10 2 19 -6 23 -20 4 -13 21 -38 36 -56 16 -18 29 -39 29 -47 0
-8 8 -15 18 -15 22 0 59 -37 64 -65 2 -15 12 -21 42 -23 36 -3 44 1 102 59 35
34 64 72 66 83 3 24 48 36 49 14 0 -7 0 -108 -1 -225 -1 -210 -1 -211 21 -218
32 -11 199 -9 210 2 7 7 13 624 9 983 0 14 -74 12 -88 -2 -7 -7 -12 -20 -12
-30 0 -13 -8 -18 -25 -18 -19 0 -25 -5 -25 -23 0 -23 -34 -56 -72 -70 -10 -3
-18 -13 -18 -21 0 -9 -13 -29 -30 -46 -16 -17 -30 -38 -30 -47 0 -17 -23 -39
-57 -53 -13 -5 -23 -18 -23 -28 0 -19 -50 -62 -73 -62 -17 0 -53 39 -61 67 -4
12 -18 31 -32 42 -13 10 -24 25 -24 33 0 9 -20 28 -45 44 -31 19 -45 35 -45
49 0 24 -29 55 -51 55 -20 0 -39 20 -39 42 0 10 -4 18 -9 18 -5 0 -14 14 -20
30 -9 27 -14 30 -50 30 -34 0 -42 -4 -46 -22z"/>
<path d="M15417 2594 c-4 -4 -7 -227 -7 -495 l0 -487 48 -10 c47 -10 165 -8
183 3 5 4 9 96 9 215 0 140 4 211 11 216 14 8 89 -65 89 -87 0 -9 20 -35 45
-58 25 -23 45 -50 45 -61 0 -13 7 -20 19 -20 21 0 71 -53 71 -75 0 -8 10 -15
23 -17 13 -2 23 -11 25 -24 2 -11 23 -40 47 -64 25 -25 45 -52 45 -62 0 -15 9
-18 50 -18 l50 0 -2 508 -3 507 -115 0 -115 0 -3 -223 c-2 -189 -5 -224 -18
-229 -19 -7 -64 34 -64 59 0 11 -7 18 -18 18 -22 0 -57 36 -66 67 -4 12 -18
31 -32 42 -13 10 -24 26 -24 35 0 8 -10 21 -22 27 -37 19 -68 51 -68 70 0 10
-13 28 -30 41 -18 13 -30 31 -30 44 0 12 -6 24 -14 27 -8 3 -16 16 -18 29 -3
20 -9 23 -53 26 -28 2 -54 0 -58 -4z m539 -533 c-4 -6 -16 -11 -27 -11 -21 0
-27 35 -6 43 16 6 41 -18 33 -32z"/>
<path d="M17515 2589 c-4 -5 -18 -14 -31 -19 -20 -8 -24 -16 -24 -54 0 -26 -6
-48 -15 -56 -8 -7 -15 -20 -15 -30 0 -10 -7 -23 -15 -30 -8 -7 -15 -27 -15
-45 0 -18 -7 -38 -15 -45 -8 -7 -15 -28 -15 -47 0 -21 -6 -36 -15 -39 -9 -4
-15 -19 -15 -40 0 -27 -6 -36 -30 -49 -25 -13 -29 -19 -24 -45 4 -19 1 -38 -8
-52 -11 -17 -12 -27 -5 -40 9 -13 7 -21 -6 -36 -9 -10 -17 -31 -17 -46 0 -19
-7 -29 -25 -36 -20 -8 -25 -16 -25 -44 0 -20 -6 -38 -14 -43 -8 -4 -16 -24
-18 -43 -2 -26 -10 -38 -30 -48 -24 -11 -28 -19 -28 -52 0 -31 4 -40 23 -46
34 -11 197 -7 212 6 8 6 15 26 17 43 l3 32 154 3 c167 3 171 2 171 -50 0 -32
15 -38 112 -44 35 -2 84 -6 111 -10 47 -6 47 -6 47 24 0 16 -7 35 -15 42 -8 7
-15 26 -15 42 0 19 -11 41 -30 61 -17 19 -30 43 -30 58 0 15 -7 32 -15 39 -10
9 -15 32 -15 76 0 57 -2 63 -22 66 -20 3 -23 10 -26 56 -2 35 -8 55 -18 59 -9
3 -14 19 -14 44 0 31 -4 39 -18 39 -27 0 -42 20 -42 56 0 19 -6 34 -15 38 -11
4 -15 22 -15 69 0 57 -3 66 -30 92 -22 21 -30 38 -30 62 0 18 -4 33 -9 33 -5
0 -14 14 -20 30 -7 23 -16 30 -35 30 -14 0 -28 -5 -31 -11z m33 -586 c3 -45 6
-52 25 -55 17 -2 22 -10 22 -33 0 -27 -4 -30 -33 -33 -45 -5 -69 5 -54 20 18
18 15 28 -8 28 -28 0 -36 27 -16 49 9 10 16 32 16 50 0 28 3 32 23 29 19 -3
22 -10 25 -55z m272 -48 c0 -8 -7 -15 -15 -15 -8 0 -15 7 -15 15 0 8 7 15 15
15 8 0 15 -7 15 -15z"/>
<path d="M4480 2536 c-8 -24 -11 -171 -11 -472 -1 -515 -11 -473 116 -465 l80
6 5 170 5 170 128 3 127 3 0 103 c0 134 0 134 -145 138 l-110 3 -3 59 c-2 41
1 62 10 67 7 5 73 9 146 9 l133 0 -3 118 -3 117 -232 3 -231 2 -12 -34z"/>
<path d="M5070 2563 c0 -4 0 -174 -1 -378 l0 -370 26 -8 c20 -7 25 -15 25 -43
0 -24 5 -37 18 -41 31 -12 67 -44 72 -66 4 -16 15 -23 37 -25 17 -2 37 -10 43
-18 18 -21 263 -20 304 1 15 8 38 15 50 15 28 1 66 33 66 57 0 10 13 30 30 43
25 22 29 32 30 76 0 37 4 54 15 58 13 5 15 50 13 353 l-3 348 -104 0 -103 0 1
-300 c2 -254 0 -303 -13 -320 -9 -11 -16 -30 -16 -42 0 -35 -11 -53 -32 -53
-17 0 -19 -5 -13 -30 l7 -30 -71 0 c-67 0 -72 2 -81 25 -5 13 -20 27 -35 31
l-25 6 -2 357 -3 356 -117 3 c-65 1 -118 -1 -118 -5z"/>
<path d="M5965 2558 c-3 -7 -4 -224 -3 -483 l3 -470 220 -5 c121 -3 238 -3
260 0 l40 5 3 93 3 92 -156 0 c-143 0 -155 1 -155 18 0 10 5 23 10 28 7 7 9
137 8 370 l-3 359 -113 3 c-84 2 -114 -1 -117 -10z"/>
<path d="M6600 2091 l0 -479 28 -7 c32 -8 484 -9 509 -1 16 5 18 18 17 93 l-1
88 -154 5 -154 5 -5 385 -5 385 -117 3 -118 3 0 -480z"/>
<path d="M7267 2563 c-4 -3 -7 -219 -7 -479 l0 -474 23 -4 c50 -11 125 -13
169 -4 l48 10 2 166 3 167 97 3 c69 2 99 7 108 17 8 10 31 15 61 15 41 0 49 3
49 18 0 23 19 42 41 42 13 0 19 10 21 38 2 30 7 38 25 40 30 4 34 25 31 157
-3 109 -3 110 -30 123 -16 7 -28 21 -28 32 0 10 -12 28 -27 40 -16 12 -30 31
-33 43 -5 19 -14 22 -67 25 -38 2 -66 8 -73 17 -10 12 -49 15 -210 15 -108 0
-200 -3 -203 -7z m415 -247 c8 -7 24 -17 36 -20 36 -12 29 -56 -15 -84 -31
-20 -46 -22 -117 -20 l-81 3 -3 59 c-2 41 1 62 10 67 22 15 155 11 170 -5z"/>
<path d="M8047 2563 c-4 -3 -7 -219 -7 -479 0 -454 1 -473 19 -479 30 -9 133
-13 176 -6 l40 6 5 170 5 170 32 3 c27 3 33 -1 39 -22 3 -14 12 -30 20 -37 8
-6 14 -26 14 -44 0 -27 5 -34 25 -39 15 -4 25 -13 25 -25 0 -10 7 -24 15 -31
8 -7 15 -27 15 -44 0 -24 10 -41 38 -68 34 -33 43 -37 107 -42 39 -2 89 -8
113 -11 41 -7 42 -6 42 20 0 16 -13 42 -31 62 -22 26 -29 42 -25 58 4 14 0 28
-9 35 -8 7 -15 20 -15 30 0 10 -20 36 -45 59 -25 23 -45 50 -45 60 0 10 -7 21
-15 25 -8 3 -15 11 -15 18 0 15 78 88 94 88 21 0 51 40 48 65 -2 14 8 33 27
53 41 40 43 100 6 140 -24 25 -27 36 -29 88 -1 25 -57 91 -82 96 -10 2 -25 16
-32 31 -11 23 -19 27 -56 27 -27 0 -48 6 -56 15 -10 12 -48 15 -225 15 -116 0
-215 -3 -218 -7z m437 -239 c9 -3 16 -14 16 -24 0 -10 7 -23 15 -30 21 -17 19
-31 -9 -58 -23 -21 -32 -23 -123 -20 l-98 3 -3 53 c-4 75 4 82 103 82 46 0 90
-3 99 -6z"/>
<path d="M10290 2555 c-8 -10 -30 -15 -61 -15 -39 0 -49 -3 -49 -17 0 -23 -49
-73 -72 -73 -11 0 -18 -7 -18 -20 0 -13 -11 -25 -27 -33 -42 -18 -56 -35 -62
-76 -5 -27 -12 -37 -29 -39 -22 -3 -22 -4 -22 -193 l0 -189 25 -10 c19 -7 25
-17 25 -39 0 -24 7 -34 29 -46 22 -11 31 -23 33 -47 2 -22 9 -34 21 -36 10 -2
39 -23 65 -48 39 -37 54 -44 88 -44 22 0 46 -6 53 -12 16 -17 262 -18 282 -1
8 6 35 13 59 15 l45 3 3 233 c1 127 -1 233 -5 233 -5 1 -47 3 -96 4 -74 2 -91
0 -112 -17 -24 -19 -25 -24 -25 -133 0 -65 4 -116 10 -120 6 -3 10 -15 10 -26
0 -16 -7 -19 -46 -19 -44 0 -46 1 -40 25 6 23 4 25 -32 25 -43 0 -92 34 -92
63 0 10 -8 20 -17 24 -10 3 -30 17 -45 31 -27 25 -28 29 -28 129 l0 103 69 70
68 70 177 0 176 0 0 64 c0 44 5 67 15 76 22 18 18 53 -8 78 -22 21 -33 22
-189 22 -135 0 -168 -3 -178 -15z"/>
<path d="M10877 2563 c-4 -3 -7 -219 -7 -479 0 -351 3 -475 12 -480 16 -10
181 -5 192 6 5 5 8 78 7 162 -1 84 3 159 7 166 15 22 66 11 70 -15 2 -12 10
-27 18 -33 8 -7 14 -27 14 -45 0 -34 20 -58 58 -69 17 -6 22 -15 22 -40 0 -21
8 -40 21 -52 13 -12 19 -27 16 -42 -6 -30 24 -42 113 -47 36 -2 79 -5 95 -7
29 -3 30 -2 33 46 2 32 -2 54 -11 65 -8 9 -17 25 -19 36 -2 11 -12 21 -23 24
-25 4 -35 19 -35 52 0 15 -7 32 -15 39 -8 7 -15 28 -15 46 0 29 -3 34 -24 34
-44 0 -37 27 22 84 31 31 65 56 75 56 13 0 17 9 17 39 0 25 5 41 15 45 12 4
15 26 15 106 0 80 -3 102 -15 106 -9 4 -15 19 -15 41 0 29 -4 36 -30 44 -16 6
-30 15 -30 20 0 5 -9 9 -21 9 -14 0 -24 10 -32 30 -10 27 -15 30 -58 30 -29 0
-51 6 -59 15 -10 12 -47 15 -210 15 -108 0 -200 -3 -203 -7z m417 -249 c19
-18 22 -94 4 -112 -8 -8 -46 -12 -103 -12 -57 0 -95 4 -103 12 -7 7 -12 33
-12 58 0 25 5 51 12 58 19 19 183 16 202 -4z"/>
<path d="M13590 2552 c0 -10 5 -23 11 -29 7 -7 10 -154 10 -454 -1 -244 3
-450 8 -458 12 -18 424 -12 443 7 6 6 26 12 43 12 23 0 42 11 75 45 24 25 52
45 62 45 11 0 18 7 18 18 0 23 50 72 73 72 13 0 17 9 17 34 0 18 7 39 15 46
12 10 15 42 15 170 0 131 -3 159 -15 164 -9 3 -15 18 -15 40 0 28 -5 37 -27
48 -21 10 -29 22 -31 45 -2 17 -10 37 -18 43 -8 7 -14 21 -14 31 0 15 -7 19
-34 19 -18 0 -39 6 -45 14 -7 8 -23 17 -36 20 -14 4 -25 15 -27 29 -3 20 -9
22 -80 25 -52 2 -80 7 -88 17 -10 12 -46 15 -186 15 -161 0 -174 -1 -174 -18z
m420 -237 c7 -8 20 -15 29 -15 21 0 41 -19 41 -38 0 -7 14 -27 30 -44 30 -29
30 -30 30 -148 0 -92 -3 -120 -15 -130 -8 -7 -15 -21 -15 -31 0 -21 -87 -69
-125 -69 -17 0 -25 -6 -27 -22 -3 -21 -8 -23 -63 -23 l-60 0 -3 255 c-1 140 0
260 3 267 7 20 159 18 175 -2z"/>
<path d="M14547 2563 c-4 -3 -7 -174 -7 -378 0 -319 2 -374 15 -385 8 -7 15
-26 15 -42 0 -42 85 -128 127 -128 17 0 36 -7 44 -16 11 -13 35 -15 156 -12
96 2 146 7 151 15 4 6 23 13 42 15 26 2 36 8 38 23 2 11 24 41 49 67 41 41 45
50 40 81 -7 46 6 66 33 49 20 -12 20 -11 20 353 l0 366 -117 -3 -118 -3 -3
-335 -2 -334 -27 -28 c-15 -15 -33 -28 -40 -28 -7 0 -18 -11 -23 -26 -9 -23
-14 -25 -67 -22 -51 3 -58 6 -61 25 -2 12 -13 23 -26 27 -31 8 -62 54 -47 69
8 8 11 109 11 317 0 363 8 340 -117 340 -44 0 -83 -3 -86 -7z"/>
<path d="M16247 2563 c-12 -12 -7 -50 8 -63 8 -7 15 -20 15 -29 0 -9 20 -37
45 -61 25 -24 45 -52 45 -62 0 -10 6 -18 14 -18 24 0 46 -29 46 -60 0 -16 7
-30 15 -34 8 -3 15 -15 15 -27 0 -13 17 -39 40 -61 22 -22 40 -45 40 -53 0 -7
7 -18 15 -25 8 -7 15 -20 15 -30 0 -10 -7 -20 -15 -24 -13 -4 -15 -37 -15
-205 l0 -199 52 -7 c66 -9 172 -10 187 -1 7 5 11 74 11 215 l0 208 25 23 c14
13 25 29 25 36 0 7 14 29 30 47 17 19 30 41 30 48 0 8 14 27 30 43 17 16 30
36 30 45 0 9 14 29 30 45 17 16 30 36 30 43 0 8 11 24 25 37 14 13 25 30 25
39 0 9 7 23 16 32 14 14 19 42 15 93 -1 9 -28 12 -99 12 -90 0 -100 -2 -120
-23 -12 -13 -22 -28 -22 -35 0 -6 -20 -33 -45 -59 -24 -26 -45 -55 -45 -63 0
-8 -12 -26 -25 -39 -14 -13 -25 -32 -25 -42 0 -11 -7 -22 -16 -26 -17 -6 -64
33 -64 55 0 8 -13 30 -30 49 -16 18 -30 40 -30 47 0 7 -11 23 -25 36 -14 13
-25 31 -25 40 0 9 -10 26 -23 38 -21 20 -34 22 -133 22 -61 0 -114 -3 -117 -7z"/>
<path d="M18210 2556 c-6 -8 -28 -16 -48 -18 -29 -2 -38 -8 -40 -24 -2 -12
-16 -34 -33 -49 -16 -16 -29 -36 -29 -46 0 -9 -7 -22 -15 -29 -23 -19 -21
-212 3 -236 9 -10 17 -31 17 -48 0 -27 4 -31 32 -34 17 -2 37 -10 43 -18 7 -8
20 -14 29 -14 10 0 30 -13 46 -30 20 -21 38 -30 61 -30 17 0 37 -7 44 -15 7
-8 20 -15 29 -15 24 0 61 -42 61 -69 0 -15 -9 -25 -29 -32 -19 -7 -31 -19 -33
-32 -3 -20 -10 -22 -77 -25 l-74 -3 5 26 c5 23 3 25 -33 25 -21 0 -45 7 -53
16 -10 9 -29 14 -48 12 l-33 -3 -3 -70 c-1 -38 -7 -79 -13 -91 -6 -12 -9 -32
-7 -45 3 -22 9 -25 63 -29 33 -3 70 -11 82 -18 33 -18 244 -16 269 3 10 8 30
15 44 15 34 0 97 65 102 104 2 16 12 34 23 40 11 6 22 14 25 17 3 4 4 57 2
118 -3 98 -5 111 -21 111 -21 0 -58 38 -63 65 -2 13 -11 20 -28 21 -14 0 -44
9 -68 19 -37 16 -42 23 -37 42 5 22 3 23 -50 23 -50 0 -58 3 -90 36 -42 43
-48 88 -12 98 12 3 82 6 155 6 l133 0 -3 103 -3 102 -38 3 c-22 2 -41 10 -44
18 -8 21 -225 20 -243 0z"/>
<path d="M18762 2088 l3 -483 84 -3 c132 -5 121 -46 121 461 0 382 -2 435 -17
469 l-17 38 -88 0 -88 0 2 -482z"/>
<path d="M17610 1065 c-13 -14 -31 -25 -40 -25 -21 0 -57 -38 -62 -65 -2 -12
-13 -21 -26 -23 -22 -3 -22 -4 -20 -165 3 -147 5 -162 21 -165 10 -2 31 -16
46 -31 24 -23 38 -28 91 -30 34 -1 87 1 116 5 48 6 54 9 54 30 0 19 5 24 25
24 24 0 25 2 25 65 l0 65 -29 0 c-22 0 -31 -6 -36 -22 -12 -38 -46 -68 -77
-68 -16 0 -36 -7 -45 -15 -14 -14 -17 -14 -32 0 -10 8 -24 15 -33 15 -22 0
-62 46 -54 65 4 13 10 14 26 5 19 -10 20 -8 20 74 0 47 -4 88 -10 91 -5 3 -10
15 -10 26 0 13 7 19 24 19 13 0 29 7 36 15 30 36 109 6 130 -49 6 -18 17 -26
33 -26 37 0 57 30 57 83 0 39 -3 47 -19 47 -10 0 -24 7 -31 15 -7 8 -27 15
-44 15 -22 0 -40 8 -56 25 -13 14 -31 25 -40 25 -9 0 -27 -11 -40 -25z"/>
<path d="M18100 1064 c-13 -13 -32 -24 -41 -24 -9 0 -22 -7 -29 -15 -7 -8 -20
-15 -29 -15 -9 0 -24 -9 -34 -20 -15 -17 -17 -44 -17 -188 l0 -168 33 -31 c39
-37 101 -48 219 -37 72 6 78 8 78 29 0 13 6 25 14 28 8 3 16 16 18 28 2 15 12
25 27 29 23 5 23 7 23 135 0 127 0 130 -23 135 -14 4 -26 16 -29 30 -4 15 -14
26 -27 28 -12 2 -27 10 -33 18 -7 8 -20 14 -29 14 -10 0 -28 11 -41 25 -29 31
-48 31 -80 -1z m104 -109 c3 -8 17 -15 31 -15 18 0 25 -5 25 -19 0 -11 -4 -23
-10 -26 -6 -3 -10 -52 -10 -111 0 -101 -1 -106 -27 -130 -23 -21 -28 -23 -42
-10 -9 8 -39 16 -66 18 l-50 3 -3 38 c-2 22 -10 41 -18 44 -19 7 -18 42 1 49
8 4 15 12 15 19 0 7 -7 15 -15 19 -19 7 -20 42 -1 49 8 3 16 16 18 29 2 15 11
24 25 26 12 2 27 10 33 18 17 19 86 19 94 -1z"/>
<path d="M18475 1028 c-3 -7 -4 -115 -3 -238 l3 -225 30 0 30 0 3 110 c3 107
8 124 39 125 21 0 63 -54 63 -81 0 -15 6 -32 14 -39 8 -6 16 -21 18 -33 3 -20
9 -22 63 -22 l60 0 3 37 c2 20 10 42 18 48 8 7 14 20 14 30 0 21 31 50 53 50
14 0 17 -16 19 -112 3 -105 4 -113 23 -113 19 0 20 8 23 170 1 93 7 174 12
179 23 23 -5 126 -34 126 -20 0 -119 -107 -111 -120 4 -6 4 -26 1 -45 -5 -24
-13 -35 -31 -39 -19 -5 -24 -14 -27 -44 -2 -29 -7 -37 -23 -37 -13 0 -21 8
-23 22 -2 12 -10 27 -18 33 -8 7 -14 20 -14 30 0 10 -7 23 -15 30 -8 7 -15 20
-15 29 0 9 -18 34 -40 56 -21 21 -40 48 -42 59 -2 17 -11 22 -46 24 -28 2 -44
-1 -47 -10z"/>
<path d="M17257 623 c-5 -47 6 -63 47 -63 43 0 52 12 48 60 -4 40 -4 40 -47
40 -42 0 -43 -1 -48 -37z"/>
</g>
</svg>
